<svg width="30" height="26" viewBox="0 0 30 26" fill="none" xmlns="http://www.w3.org/2000/svg">
<path d="M29.5206 11.8344L18.6866 1.00014C18.3773 0.690873 17.9651 0.521118 17.5256 0.521118C17.0856 0.521118 16.6737 0.691117 16.3644 1.00014L15.3807 1.98403C15.0717 2.29281 14.9015 2.70525 14.9015 3.145C14.9015 3.58451 15.0717 4.01084 15.3807 4.31962L21.7012 10.654H1.62084C0.715482 10.654 0.00012207 11.3627 0.00012207 12.2683V13.6593C0.00012207 14.5649 0.715482 15.3451 1.62084 15.3451H21.7729L15.381 21.7148C15.072 22.0241 14.9017 22.4253 14.9017 22.8651C14.9017 23.3043 15.072 23.7114 15.381 24.0204L16.3646 25.0012C16.6739 25.3104 17.0858 25.479 17.5258 25.479C17.9653 25.479 18.3775 25.3082 18.6868 24.999L29.5209 14.1649C29.8309 13.8547 30.0013 13.4405 30.0001 13.0003C30.0011 12.5586 29.8309 12.1442 29.5206 11.8344Z" fill="white"/>
</svg>
