<svg width="150" height="70" viewBox="0 0 150 70" fill="none" xmlns="http://www.w3.org/2000/svg">
<rect x="0.00012207" width="150" height="70" rx="10" fill="#FFC70F"/>
<g clip-path="url(#clip0_0_78)">
<path d="M89.5206 33.8344L78.6866 23.0001C78.3773 22.6909 77.9651 22.5211 77.5256 22.5211C77.0856 22.5211 76.6737 22.6911 76.3644 23.0001L75.3807 23.984C75.0717 24.2928 74.9015 24.7052 74.9015 25.145C74.9015 25.5845 75.0717 26.0108 75.3807 26.3196L81.7012 32.654H61.6208C60.7155 32.654 60.0001 33.3627 60.0001 34.2683V35.6593C60.0001 36.5649 60.7155 37.3451 61.6208 37.3451H81.7729L75.381 43.7148C75.072 44.0241 74.9017 44.4253 74.9017 44.8651C74.9017 45.3043 75.072 45.7114 75.381 46.0204L76.3646 47.0012C76.6739 47.3104 77.0858 47.479 77.5258 47.479C77.9653 47.479 78.3775 47.3082 78.6868 46.999L89.5209 36.1649C89.8309 35.8547 90.0013 35.4405 90.0001 35.0003C90.0011 34.5586 89.8309 34.1442 89.5206 33.8344Z" fill="white"/>
</g>
<defs>
<clipPath id="clip0_0_78">
<rect width="30" height="30" fill="white" transform="translate(60.0001 20)"/>
</clipPath>
</defs>
</svg>
