<svg width="138" height="60" viewBox="0 0 138 60" fill="none" xmlns="http://www.w3.org/2000/svg">
<rect x="2" y="35" width="136" height="10" fill="#F16A22"/>
<path d="M10.4753 38H19.2353V44H2.63526V15.8H10.4753V38ZM21.0037 32.76C21.0037 30.44 21.417 28.4133 22.2437 26.68C23.097 24.9467 24.2437 23.6133 25.6837 22.68C27.1504 21.7467 28.777 21.28 30.5637 21.28C32.1104 21.28 33.4437 21.5867 34.5637 22.2C35.6837 22.8133 36.5504 23.64 37.1637 24.68V21.56H45.0037V44H37.1637V40.88C36.5504 41.92 35.6704 42.7467 34.5237 43.36C33.4037 43.9733 32.0837 44.28 30.5637 44.28C28.777 44.28 27.1504 43.8133 25.6837 42.88C24.2437 41.9467 23.097 40.6133 22.2437 38.88C21.417 37.12 21.0037 35.08 21.0037 32.76ZM37.1637 32.76C37.1637 31.32 36.7637 30.1867 35.9637 29.36C35.1904 28.5333 34.2304 28.12 33.0837 28.12C31.9104 28.12 30.937 28.5333 30.1637 29.36C29.3904 30.16 29.0037 31.2933 29.0037 32.76C29.0037 34.2 29.3904 35.3467 30.1637 36.2C30.937 37.0267 31.9104 37.44 33.0837 37.44C34.2304 37.44 35.1904 37.0267 35.9637 36.2C36.7637 35.3733 37.1637 34.2267 37.1637 32.76ZM57.3112 24.68C57.9245 23.6133 58.7912 22.7867 59.9112 22.2C61.0312 21.5867 62.3512 21.28 63.8712 21.28C65.6579 21.28 67.2712 21.7467 68.7112 22.68C70.1779 23.6133 71.3245 24.9467 72.1512 26.68C73.0045 28.4133 73.4312 30.44 73.4312 32.76C73.4312 35.08 73.0045 37.12 72.1512 38.88C71.3245 40.6133 70.1779 41.9467 68.7112 42.88C67.2712 43.8133 65.6579 44.28 63.8712 44.28C62.3512 44.28 61.0312 43.9867 59.9112 43.4C58.7912 42.7867 57.9245 41.9467 57.3112 40.88V44H49.4712V14.4H57.3112V24.68ZM65.4712 32.76C65.4712 31.2933 65.0712 30.16 64.2712 29.36C63.4979 28.5333 62.5379 28.12 61.3912 28.12C60.2445 28.12 59.2712 28.5333 58.4712 29.36C57.6979 30.1867 57.3112 31.32 57.3112 32.76C57.3112 34.2267 57.6979 35.3733 58.4712 36.2C59.2712 37.0267 60.2445 37.44 61.3912 37.44C62.5379 37.44 63.4979 37.0267 64.2712 36.2C65.0712 35.3467 65.4712 34.2 65.4712 32.76ZM87.0987 44.28C84.8587 44.28 82.8454 43.8133 81.0587 42.88C79.2987 41.9467 77.912 40.6133 76.8987 38.88C75.8854 37.1467 75.3787 35.1067 75.3787 32.76C75.3787 30.44 75.8854 28.4133 76.8987 26.68C77.9387 24.9467 79.3387 23.6133 81.0987 22.68C82.8854 21.7467 84.8987 21.28 87.1387 21.28C89.3787 21.28 91.3787 21.7467 93.1387 22.68C94.9254 23.6133 96.3254 24.9467 97.3387 26.68C98.3787 28.4133 98.8987 30.44 98.8987 32.76C98.8987 35.08 98.3787 37.12 97.3387 38.88C96.3254 40.6133 94.9254 41.9467 93.1387 42.88C91.352 43.8133 89.3387 44.28 87.0987 44.28ZM87.0987 37.48C88.192 37.48 89.0987 37.08 89.8187 36.28C90.5654 35.4533 90.9387 34.28 90.9387 32.76C90.9387 31.24 90.5654 30.08 89.8187 29.28C89.0987 28.48 88.2054 28.08 87.1387 28.08C86.072 28.08 85.1787 28.48 84.4587 29.28C83.7387 30.08 83.3787 31.24 83.3787 32.76C83.3787 34.3067 83.7254 35.48 84.4187 36.28C85.112 37.08 86.0054 37.48 87.0987 37.48Z" fill="#2C2C2C"/>
</svg>
