<svg width="330" height="60" viewBox="0 0 330 60" fill="none" xmlns="http://www.w3.org/2000/svg">
<rect x="1.39526" y="35" width="328" height="10" fill="#FFC70F"/>
<path d="M24.9153 25.2C24.9153 26.9067 24.5153 28.4667 23.7153 29.88C22.9419 31.2667 21.7553 32.3867 20.1553 33.24C18.5819 34.0667 16.6486 34.48 14.3553 34.48H10.4753V44H2.63526V15.8H14.3553C16.6219 15.8 18.5419 16.2 20.1153 17C21.7153 17.8 22.9153 18.9067 23.7153 20.32C24.5153 21.7333 24.9153 23.36 24.9153 25.2ZM13.5953 28.24C15.8086 28.24 16.9153 27.2267 16.9153 25.2C16.9153 23.1467 15.8086 22.12 13.5953 22.12H10.4753V28.24H13.5953ZM35.905 25.52C36.785 24.24 37.8516 23.2267 39.105 22.48C40.3583 21.7333 41.705 21.36 43.145 21.36V29.72H40.945C39.2383 29.72 37.9716 30.0533 37.145 30.72C36.3183 31.3867 35.905 32.5467 35.905 34.2V44H28.065V21.56H35.905V25.52ZM56.3956 44.28C54.1556 44.28 52.1422 43.8133 50.3556 42.88C48.5956 41.9467 47.2089 40.6133 46.1956 38.88C45.1822 37.1467 44.6756 35.1067 44.6756 32.76C44.6756 30.44 45.1822 28.4133 46.1956 26.68C47.2356 24.9467 48.6356 23.6133 50.3956 22.68C52.1822 21.7467 54.1956 21.28 56.4356 21.28C58.6756 21.28 60.6756 21.7467 62.4356 22.68C64.2222 23.6133 65.6222 24.9467 66.6356 26.68C67.6756 28.4133 68.1956 30.44 68.1956 32.76C68.1956 35.08 67.6756 37.12 66.6356 38.88C65.6222 40.6133 64.2222 41.9467 62.4356 42.88C60.6489 43.8133 58.6356 44.28 56.3956 44.28ZM56.3956 37.48C57.4889 37.48 58.3956 37.08 59.1156 36.28C59.8622 35.4533 60.2356 34.28 60.2356 32.76C60.2356 31.24 59.8622 30.08 59.1156 29.28C58.3956 28.48 57.5022 28.08 56.4356 28.08C55.3689 28.08 54.4756 28.48 53.7556 29.28C53.0356 30.08 52.6756 31.24 52.6756 32.76C52.6756 34.3067 53.0222 35.48 53.7156 36.28C54.4089 37.08 55.3022 37.48 56.3956 37.48ZM75.3053 19.48C73.9186 19.48 72.7986 19.1067 71.9453 18.36C71.1186 17.5867 70.7053 16.6267 70.7053 15.48C70.7053 14.3067 71.1186 13.3333 71.9453 12.56C72.7986 11.7867 73.9186 11.4 75.3053 11.4C76.6653 11.4 77.7586 11.7867 78.5853 12.56C79.4386 13.3333 79.8653 14.3067 79.8653 15.48C79.8653 16.6267 79.4386 17.5867 78.5853 18.36C77.7586 19.1067 76.6653 19.48 75.3053 19.48ZM79.2253 46.2C79.2253 51.88 76.3719 54.72 70.6653 54.72H67.8253V48.04H69.5053C70.1719 48.04 70.6519 47.9067 70.9453 47.64C71.2386 47.3733 71.3853 46.9333 71.3853 46.32V21.56H79.2253V46.2ZM105.091 32.52C105.091 33.1333 105.051 33.7467 104.971 34.36H90.1309C90.2109 35.5867 90.5442 36.5067 91.1309 37.12C91.7442 37.7067 92.5176 38 93.4509 38C94.7576 38 95.6909 37.4133 96.2509 36.24H104.611C104.264 37.7867 103.584 39.1733 102.571 40.4C101.584 41.6 100.331 42.5467 98.8109 43.24C97.2909 43.9333 95.6109 44.28 93.7709 44.28C91.5576 44.28 89.5842 43.8133 87.8509 42.88C86.1442 41.9467 84.7976 40.6133 83.8109 38.88C82.8509 37.1467 82.3709 35.1067 82.3709 32.76C82.3709 30.4133 82.8509 28.3867 83.8109 26.68C84.7709 24.9467 86.1042 23.6133 87.8109 22.68C89.5442 21.7467 91.5309 21.28 93.7709 21.28C95.9842 21.28 97.9442 21.7333 99.6509 22.64C101.358 23.5467 102.691 24.8533 103.651 26.56C104.611 28.24 105.091 30.2267 105.091 32.52ZM97.0909 30.56C97.0909 29.6 96.7709 28.8533 96.1309 28.32C95.4909 27.76 94.6909 27.48 93.7309 27.48C92.7709 27.48 91.9842 27.7467 91.3709 28.28C90.7576 28.7867 90.3576 29.5467 90.1709 30.56H97.0909ZM107.019 32.76C107.019 30.44 107.499 28.4133 108.459 26.68C109.419 24.9467 110.753 23.6133 112.459 22.68C114.193 21.7467 116.166 21.28 118.379 21.28C121.233 21.28 123.633 22.0667 125.579 23.64C127.526 25.1867 128.779 27.36 129.339 30.16H121.019C120.539 28.6933 119.606 27.96 118.219 27.96C117.233 27.96 116.446 28.3733 115.859 29.2C115.299 30 115.019 31.1867 115.019 32.76C115.019 34.3333 115.299 35.5333 115.859 36.36C116.446 37.1867 117.233 37.6 118.219 37.6C119.633 37.6 120.566 36.8667 121.019 35.4H129.339C128.779 38.1733 127.526 40.3467 125.579 41.92C123.633 43.4933 121.233 44.28 118.379 44.28C116.166 44.28 114.193 43.8133 112.459 42.88C110.753 41.9467 109.419 40.6133 108.459 38.88C107.499 37.1467 107.019 35.1067 107.019 32.76ZM145.836 37.32V44H142.436C136.703 44 133.836 41.16 133.836 35.48V28.08H131.076V21.56H133.836V16.12H141.716V21.56H145.796V28.08H141.716V35.6C141.716 36.2133 141.85 36.6533 142.116 36.92C142.41 37.1867 142.89 37.32 143.556 37.32H145.836ZM164.928 24.68C165.542 23.6133 166.408 22.7867 167.528 22.2C168.648 21.5867 169.968 21.28 171.488 21.28C173.275 21.28 174.888 21.7467 176.328 22.68C177.795 23.6133 178.942 24.9467 179.768 26.68C180.622 28.4133 181.048 30.44 181.048 32.76C181.048 35.08 180.622 37.12 179.768 38.88C178.942 40.6133 177.795 41.9467 176.328 42.88C174.888 43.8133 173.275 44.28 171.488 44.28C169.968 44.28 168.648 43.9867 167.528 43.4C166.408 42.7867 165.542 41.9467 164.928 40.88V44H157.088V14.4H164.928V24.68ZM173.088 32.76C173.088 31.2933 172.688 30.16 171.888 29.36C171.115 28.5333 170.155 28.12 169.008 28.12C167.862 28.12 166.888 28.5333 166.088 29.36C165.315 30.1867 164.928 31.32 164.928 32.76C164.928 34.2267 165.315 35.3733 166.088 36.2C166.888 37.0267 167.862 37.44 169.008 37.44C170.155 37.44 171.115 37.0267 171.888 36.2C172.688 35.3467 173.088 34.2 173.088 32.76ZM182.996 32.76C182.996 30.44 183.409 28.4133 184.236 26.68C185.089 24.9467 186.236 23.6133 187.676 22.68C189.143 21.7467 190.769 21.28 192.556 21.28C194.103 21.28 195.436 21.5867 196.556 22.2C197.676 22.8133 198.543 23.64 199.156 24.68V21.56H206.996V44H199.156V40.88C198.543 41.92 197.663 42.7467 196.516 43.36C195.396 43.9733 194.076 44.28 192.556 44.28C190.769 44.28 189.143 43.8133 187.676 42.88C186.236 41.9467 185.089 40.6133 184.236 38.88C183.409 37.12 182.996 35.08 182.996 32.76ZM199.156 32.76C199.156 31.32 198.756 30.1867 197.956 29.36C197.183 28.5333 196.223 28.12 195.076 28.12C193.903 28.12 192.929 28.5333 192.156 29.36C191.383 30.16 190.996 31.2933 190.996 32.76C190.996 34.2 191.383 35.3467 192.156 36.2C192.929 37.0267 193.903 37.44 195.076 37.44C196.223 37.44 197.183 37.0267 197.956 36.2C198.756 35.3733 199.156 34.2267 199.156 32.76ZM221.023 44.28C218.997 44.28 217.183 43.9467 215.583 43.28C214.01 42.5867 212.757 41.6533 211.823 40.48C210.917 39.28 210.41 37.9333 210.303 36.44H217.903C218.01 37.16 218.343 37.72 218.903 38.12C219.463 38.52 220.157 38.72 220.983 38.72C221.623 38.72 222.13 38.5867 222.503 38.32C222.877 38.0533 223.063 37.7067 223.063 37.28C223.063 36.72 222.757 36.3067 222.143 36.04C221.53 35.7733 220.517 35.48 219.103 35.16C217.503 34.84 216.17 34.48 215.103 34.08C214.037 33.68 213.103 33.0267 212.303 32.12C211.53 31.2133 211.143 29.9867 211.143 28.44C211.143 27.1067 211.503 25.9067 212.223 24.84C212.943 23.7467 213.997 22.88 215.383 22.24C216.797 21.6 218.49 21.28 220.463 21.28C223.397 21.28 225.703 22 227.383 23.44C229.063 24.88 230.037 26.7733 230.303 29.12H223.223C223.09 28.4 222.77 27.8533 222.263 27.48C221.783 27.08 221.13 26.88 220.303 26.88C219.663 26.88 219.17 27 218.823 27.24C218.503 27.48 218.343 27.8133 218.343 28.24C218.343 28.7733 218.65 29.1867 219.263 29.48C219.877 29.7467 220.863 30.0267 222.223 30.32C223.85 30.6667 225.197 31.0533 226.263 31.48C227.357 31.9067 228.303 32.6 229.103 33.56C229.93 34.4933 230.343 35.7733 230.343 37.4C230.343 38.7067 229.957 39.88 229.183 40.92C228.437 41.96 227.357 42.7867 225.943 43.4C224.557 43.9867 222.917 44.28 221.023 44.28ZM255.638 32.52C255.638 33.1333 255.598 33.7467 255.518 34.36H240.678C240.758 35.5867 241.091 36.5067 241.678 37.12C242.291 37.7067 243.064 38 243.998 38C245.304 38 246.238 37.4133 246.798 36.24H255.158C254.811 37.7867 254.131 39.1733 253.118 40.4C252.131 41.6 250.878 42.5467 249.358 43.24C247.838 43.9333 246.158 44.28 244.318 44.28C242.104 44.28 240.131 43.8133 238.398 42.88C236.691 41.9467 235.344 40.6133 234.358 38.88C233.398 37.1467 232.918 35.1067 232.918 32.76C232.918 30.4133 233.398 28.3867 234.358 26.68C235.318 24.9467 236.651 23.6133 238.358 22.68C240.091 21.7467 242.078 21.28 244.318 21.28C246.531 21.28 248.491 21.7333 250.198 22.64C251.904 23.5467 253.238 24.8533 254.198 26.56C255.158 28.24 255.638 30.2267 255.638 32.52ZM247.638 30.56C247.638 29.6 247.318 28.8533 246.678 28.32C246.038 27.76 245.238 27.48 244.278 27.48C243.318 27.48 242.531 27.7467 241.918 28.28C241.304 28.7867 240.904 29.5467 240.718 30.56H247.638ZM257.566 32.76C257.566 30.44 257.98 28.4133 258.806 26.68C259.66 24.9467 260.82 23.6133 262.286 22.68C263.753 21.7467 265.38 21.28 267.166 21.28C268.606 21.28 269.886 21.5867 271.006 22.2C272.153 22.7867 273.046 23.6 273.686 24.64V14.4H281.566V44H273.686V40.88C273.073 41.92 272.206 42.7467 271.086 43.36C269.966 43.9733 268.646 44.28 267.126 44.28C265.34 44.28 263.713 43.8133 262.246 42.88C260.806 41.9467 259.66 40.6133 258.806 38.88C257.98 37.12 257.566 35.08 257.566 32.76ZM273.726 32.76C273.726 31.32 273.326 30.1867 272.526 29.36C271.753 28.5333 270.793 28.12 269.646 28.12C268.473 28.12 267.5 28.5333 266.726 29.36C265.953 30.16 265.566 31.2933 265.566 32.76C265.566 34.2 265.953 35.3467 266.726 36.2C267.5 37.0267 268.473 37.44 269.646 37.44C270.793 37.44 271.753 37.0267 272.526 36.2C273.326 35.3733 273.726 34.2267 273.726 32.76Z" fill="#2C2C2C"/>
</svg>
